<svg width="40" height="44" viewBox="0 0 40 44" fill="none" xmlns="http://www.w3.org/2000/svg">
<path d="M19.7083 39.3914H23.2917V10.5089L34.7476 16.5965C35.0701 16.7679 35.3449 17.053 35.5379 17.4163C35.7309 17.7797 35.8336 18.2053 35.8333 18.6404V39.3914H39.4167V43.8349H0V39.3914H3.58333V9.73131C3.58329 9.30145 3.68381 8.8808 3.87271 8.52036C4.06162 8.15992 4.33078 7.87518 4.64758 7.70065L18.4488 0.0956763C18.5851 0.0206098 18.7343 -0.0110949 18.8829 0.00343649C19.0316 0.0179679 19.1749 0.0782758 19.3 0.178892C19.4251 0.279509 19.528 0.417252 19.5993 0.579632C19.6706 0.742012 19.7081 0.923893 19.7083 1.10878V39.3914Z" fill="#4169E1"/>
</svg>
