<svg width="37" height="37" viewBox="0 0 37 37" fill="none" xmlns="http://www.w3.org/2000/svg">
<path fill-rule="evenodd" clip-rule="evenodd" d="M26.9275 36.607C24.2875 36.5098 16.8057 35.4758 8.97003 27.642C1.13619 19.8063 0.104027 12.3263 0.00502699 9.68448C-0.14164 5.65848 2.94203 1.74798 6.50419 0.220814C6.93315 0.0355868 7.4029 -0.0349349 7.86733 0.0161693C8.33177 0.0672734 8.77494 0.238247 9.15336 0.512314C12.0867 2.64998 14.1107 5.88398 15.8487 8.42681C16.2311 8.98549 16.3946 9.66532 16.308 10.3368C16.2215 11.0082 15.8909 11.6244 15.3794 12.0678L11.8025 14.7243C11.6297 14.8491 11.5081 15.0324 11.4602 15.2401C11.4123 15.4478 11.4415 15.6658 11.5422 15.8536C12.3525 17.3258 13.7935 19.5185 15.4435 21.1685C17.0935 22.8185 19.3907 24.3548 20.9655 25.2568C21.163 25.3677 21.3954 25.3986 21.615 25.3434C21.8346 25.2882 22.0247 25.1509 22.1462 24.9598L24.4745 21.416C24.9026 20.8474 25.5341 20.4664 26.2367 20.353C26.9393 20.2395 27.6586 20.4023 28.2439 20.8073C30.8234 22.593 33.8337 24.5821 36.0374 27.4037C36.3337 27.7848 36.5222 28.2386 36.5831 28.7175C36.6441 29.1964 36.5753 29.6829 36.3839 30.1261C34.8494 33.7066 30.9664 36.7555 26.9275 36.607Z" fill="#4169E1"/>
</svg>
