<svg width="22" height="22" viewBox="0 0 22 22" fill="none" xmlns="http://www.w3.org/2000/svg">
<path d="M11.0001 21.2666C9.65183 21.2666 8.31679 21.0011 7.07118 20.4851C5.82557 19.9692 4.69378 19.2129 3.74044 18.2596C2.78709 17.3062 2.03085 16.1744 1.5149 14.9288C0.998954 13.6832 0.733398 12.3482 0.733398 10.9999C0.733398 9.65171 0.998954 8.31667 1.5149 7.07106C2.03085 5.82545 2.78709 4.69366 3.74044 3.74031C4.69378 2.78697 5.82557 2.03073 7.07118 1.51478C8.31679 0.998832 9.65183 0.733276 11.0001 0.733276C13.723 0.733276 16.3343 1.81494 18.2597 3.74031C20.1851 5.66569 21.2667 8.27705 21.2667 10.9999C21.2667 13.7228 20.1851 16.3342 18.2597 18.2596C16.3343 20.1849 13.723 21.2666 11.0001 21.2666ZM11.0001 21.2666V9.53328C11.0001 8.75531 11.3091 8.0092 11.8592 7.4591C12.4093 6.90899 13.1554 6.59994 13.9334 6.59994H14.6667M7.3334 12.4666H14.6667" stroke="black" stroke-width="2"/>
</svg>
