<svg width="22" height="22" viewBox="0 0 22 22" fill="none" xmlns="http://www.w3.org/2000/svg">
<path d="M17.8803 7.29663C17.2263 9.84723 15.8989 12.1752 14.037 14.0371C12.1751 15.899 9.84711 17.2264 7.2965 17.8805C5.33392 18.38 3.6665 16.6925 3.6665 14.6666V13.75C3.6665 13.244 4.07809 12.8379 4.58225 12.7875C5.41678 12.7045 6.23598 12.5074 7.01692 12.2017L8.40934 13.595C10.678 12.5075 12.5074 10.6781 13.5949 8.40946L12.2016 7.01613C12.5076 6.23523 12.705 5.41603 12.7883 4.58146C12.8378 4.07729 13.2438 3.66663 13.7498 3.66663H14.6665C16.6905 3.66663 18.379 5.33404 17.8794 7.29663" stroke="black" stroke-width="2" stroke-linecap="round" stroke-linejoin="round"/>
</svg>
